<svg width="36" height="41" viewBox="0 0 36 41" fill="none" xmlns="http://www.w3.org/2000/svg">
<path d="M3 17.2258V12H7.8983V17.2258H3ZM9.05085 17.2258V12H13.9492V17.2258H9.05085ZM15.1017 17.2258V12H20V17.2258H15.1017ZM15.1017 23.6129V18.3871H20V23.6129H15.1017ZM9.05085 23.6129V18.3871H13.9492V23.6129H9.05085ZM3 23.6129V18.3871H7.8983V23.6129H3ZM15.1017 30V24.7742H20V30H15.1017ZM9.05085 30V24.7742H13.9492V30H9.05085ZM3 30V24.7742H7.8983V30H3Z" fill="white"/>
<path d="M33.202 38.018V39.686L34 39.962V40.844L29.806 39.338V38.36L34 36.854V37.742L33.202 38.018ZM32.53 38.246L30.778 38.852L32.53 39.458V38.246ZM32.326 36.5071C31.99 36.5071 31.692 36.4411 31.432 36.3091C31.172 36.1731 30.972 35.9891 30.832 35.7571C30.692 35.5251 30.622 35.2671 30.622 34.9831C30.622 34.7671 30.67 34.5611 30.766 34.3651C30.858 34.1691 30.982 34.0131 31.138 33.8971H29.56V33.0451H34V33.8971H33.508C33.672 34.0011 33.804 34.1471 33.904 34.3351C34.004 34.5231 34.054 34.7411 34.054 34.9891C34.054 35.2691 33.982 35.5251 33.838 35.7571C33.694 35.9891 33.492 36.1731 33.232 36.3091C32.968 36.4411 32.666 36.5071 32.326 36.5071ZM32.338 33.8911C32.134 33.8911 31.96 33.9311 31.816 34.0111C31.668 34.0911 31.556 34.1991 31.48 34.3351C31.4 34.4711 31.36 34.6171 31.36 34.7731C31.36 34.9291 31.398 35.0731 31.474 35.2051C31.55 35.3371 31.662 35.4451 31.81 35.5291C31.954 35.6091 32.126 35.6491 32.326 35.6491C32.526 35.6491 32.702 35.6091 32.854 35.5291C33.002 35.4451 33.116 35.3371 33.196 35.2051C33.276 35.0691 33.316 34.9251 33.316 34.7731C33.316 34.6171 33.278 34.4711 33.202 34.3351C33.122 34.1991 33.01 34.0911 32.866 34.0111C32.718 33.9311 32.542 33.8911 32.338 33.8911ZM32.326 32.4407C31.99 32.4407 31.692 32.3747 31.432 32.2427C31.172 32.1067 30.972 31.9227 30.832 31.6907C30.692 31.4587 30.622 31.2007 30.622 30.9167C30.622 30.7007 30.67 30.4947 30.766 30.2987C30.858 30.1027 30.982 29.9467 31.138 29.8307H29.56V28.9787H34V29.8307H33.508C33.672 29.9347 33.804 30.0807 33.904 30.2687C34.004 30.4567 34.054 30.6747 34.054 30.9227C34.054 31.2027 33.982 31.4587 33.838 31.6907C33.694 31.9227 33.492 32.1067 33.232 32.2427C32.968 32.3747 32.666 32.4407 32.326 32.4407ZM32.338 29.8247C32.134 29.8247 31.96 29.8647 31.816 29.9447C31.668 30.0247 31.556 30.1327 31.48 30.2687C31.4 30.4047 31.36 30.5507 31.36 30.7067C31.36 30.8627 31.398 31.0067 31.474 31.1387C31.55 31.2707 31.662 31.3787 31.81 31.4627C31.954 31.5427 32.126 31.5827 32.326 31.5827C32.526 31.5827 32.702 31.5427 32.854 31.4627C33.002 31.3787 33.116 31.2707 33.196 31.1387C33.276 31.0027 33.316 30.8587 33.316 30.7067C33.316 30.5507 33.278 30.4047 33.202 30.2687C33.122 30.1327 33.01 30.0247 32.866 29.9447C32.718 29.8647 32.542 29.8247 32.338 29.8247ZM31.108 23.6746C31.332 23.6746 31.542 23.7286 31.738 23.8366C31.934 23.9406 32.092 24.1066 32.212 24.3346C32.332 24.5586 32.392 24.8426 32.392 25.1866V25.8886H34V26.7286H29.812V25.1866C29.812 24.8626 29.868 24.5866 29.98 24.3586C30.092 24.1306 30.246 23.9606 30.442 23.8486C30.638 23.7326 30.86 23.6746 31.108 23.6746ZM31.714 25.2226C31.714 24.9906 31.662 24.8186 31.558 24.7066C31.45 24.5946 31.3 24.5386 31.108 24.5386C30.7 24.5386 30.496 24.7666 30.496 25.2226V25.8886H31.714V25.2226ZM31.192 22.2382C31.016 22.1302 30.878 21.9902 30.778 21.8182C30.678 21.6422 30.628 21.4422 30.628 21.2182H31.51V21.4402C31.51 21.7042 31.572 21.9042 31.696 22.0402C31.82 22.1722 32.036 22.2382 32.344 22.2382H34V23.0782H30.676V22.2382H31.192ZM34.054 19.1764C34.054 19.4964 33.984 19.7844 33.844 20.0404C33.7 20.2964 33.498 20.4984 33.238 20.6464C32.978 20.7904 32.678 20.8624 32.338 20.8624C31.998 20.8624 31.698 20.7884 31.438 20.6404C31.178 20.4884 30.978 20.2824 30.838 20.0224C30.694 19.7624 30.622 19.4724 30.622 19.1524C30.622 18.8324 30.694 18.5424 30.838 18.2824C30.978 18.0224 31.178 17.8184 31.438 17.6704C31.698 17.5184 31.998 17.4424 32.338 17.4424C32.678 17.4424 32.978 17.5204 33.238 17.6764C33.498 17.8284 33.7 18.0364 33.844 18.3004C33.984 18.5604 34.054 18.8524 34.054 19.1764ZM33.322 19.1764C33.322 19.0244 33.286 18.8824 33.214 18.7504C33.138 18.6144 33.026 18.5064 32.878 18.4264C32.73 18.3464 32.55 18.3064 32.338 18.3064C32.022 18.3064 31.78 18.3904 31.612 18.5584C31.44 18.7224 31.354 18.9244 31.354 19.1644C31.354 19.4044 31.44 19.6064 31.612 19.7704C31.78 19.9304 32.022 20.0104 32.338 20.0104C32.654 20.0104 32.898 19.9324 33.07 19.7764C33.238 19.6164 33.322 19.4164 33.322 19.1764ZM32.326 17.0422C31.99 17.0422 31.692 16.9762 31.432 16.8442C31.172 16.7082 30.972 16.5242 30.832 16.2922C30.692 16.0602 30.622 15.8022 30.622 15.5182C30.622 15.3022 30.67 15.0962 30.766 14.9002C30.858 14.7042 30.982 14.5482 31.138 14.4322H29.56V13.5802H34V14.4322H33.508C33.672 14.5362 33.804 14.6822 33.904 14.8702C34.004 15.0582 34.054 15.2762 34.054 15.5242C34.054 15.8042 33.982 16.0602 33.838 16.2922C33.694 16.5242 33.492 16.7082 33.232 16.8442C32.968 16.9762 32.666 17.0422 32.326 17.0422ZM32.338 14.4262C32.134 14.4262 31.96 14.4662 31.816 14.5462C31.668 14.6262 31.556 14.7342 31.48 14.8702C31.4 15.0062 31.36 15.1522 31.36 15.3082C31.36 15.4642 31.398 15.6082 31.474 15.7402C31.55 15.8722 31.662 15.9802 31.81 16.0642C31.954 16.1442 32.126 16.1842 32.326 16.1842C32.526 16.1842 32.702 16.1442 32.854 16.0642C33.002 15.9802 33.116 15.8722 33.196 15.7402C33.276 15.6042 33.316 15.4602 33.316 15.3082C33.316 15.1522 33.278 15.0062 33.202 14.8702C33.122 14.7342 33.01 14.6262 32.866 14.5462C32.718 14.4662 32.542 14.4262 32.338 14.4262ZM30.676 9.62183H34V10.4678H33.58C33.724 10.5758 33.838 10.7178 33.922 10.8938C34.002 11.0658 34.042 11.2538 34.042 11.4578C34.042 11.7178 33.988 11.9478 33.88 12.1478C33.768 12.3478 33.606 12.5058 33.394 12.6218C33.178 12.7338 32.922 12.7898 32.626 12.7898H30.676V11.9498H32.506C32.77 11.9498 32.974 11.8838 33.118 11.7518C33.258 11.6198 33.328 11.4398 33.328 11.2118C33.328 10.9798 33.258 10.7978 33.118 10.6658C32.974 10.5338 32.77 10.4678 32.506 10.4678H30.676V9.62183ZM32.338 9.00903C31.994 9.00903 31.694 8.93903 31.438 8.79903C31.178 8.65903 30.978 8.46503 30.838 8.21703C30.694 7.96903 30.622 7.68503 30.622 7.36503C30.622 6.95303 30.726 6.61303 30.934 6.34503C31.138 6.07303 31.426 5.89103 31.798 5.79903V6.70503C31.654 6.75303 31.542 6.83503 31.462 6.95103C31.378 7.06303 31.336 7.20303 31.336 7.37103C31.336 7.61103 31.424 7.80103 31.6 7.94103C31.772 8.08103 32.018 8.15103 32.338 8.15103C32.654 8.15103 32.9 8.08103 33.076 7.94103C33.248 7.80103 33.334 7.61103 33.334 7.37103C33.334 7.03103 33.182 6.80903 32.878 6.70503V5.79903C33.238 5.89103 33.524 6.07303 33.736 6.34503C33.948 6.61703 34.054 6.95703 34.054 7.36503C34.054 7.68503 33.984 7.96903 33.844 8.21703C33.7 8.46503 33.5 8.65903 33.244 8.79903C32.984 8.93903 32.682 9.00903 32.338 9.00903ZM31.366 4.20566H32.974C33.086 4.20566 33.168 4.17966 33.22 4.12766C33.268 4.07166 33.292 3.97966 33.292 3.85166V3.46166H34V3.98966C34 4.69766 33.656 5.05166 32.968 5.05166H31.366V5.44766H30.676V5.05166H29.854V4.20566H30.676V3.46166H31.366V4.20566ZM34.054 1.58548C34.054 1.85748 34.006 2.10148 33.91 2.31748C33.81 2.53348 33.676 2.70548 33.508 2.83348C33.34 2.95748 33.154 3.02548 32.95 3.03748V2.19148C33.078 2.17548 33.184 2.11348 33.268 2.00548C33.352 1.89348 33.394 1.75548 33.394 1.59148C33.394 1.43148 33.362 1.30748 33.298 1.21948C33.234 1.12748 33.152 1.08148 33.052 1.08148C32.944 1.08148 32.864 1.13748 32.812 1.24948C32.756 1.35748 32.696 1.53148 32.632 1.77148C32.572 2.01948 32.51 2.22348 32.446 2.38348C32.382 2.53948 32.284 2.67548 32.152 2.79148C32.02 2.90348 31.842 2.95948 31.618 2.95948C31.434 2.95948 31.266 2.90748 31.114 2.80348C30.962 2.69548 30.842 2.54348 30.754 2.34748C30.666 2.14748 30.622 1.91348 30.622 1.64548C30.622 1.24948 30.722 0.933484 30.922 0.697484C31.118 0.461484 31.384 0.331484 31.72 0.307484V1.11148C31.588 1.12348 31.484 1.17948 31.408 1.27948C31.328 1.37548 31.288 1.50548 31.288 1.66948C31.288 1.82148 31.316 1.93948 31.372 2.02348C31.428 2.10348 31.506 2.14348 31.606 2.14348C31.718 2.14348 31.804 2.08748 31.864 1.97548C31.92 1.86348 31.978 1.68948 32.038 1.45348C32.098 1.21348 32.16 1.01548 32.224 0.859484C32.288 0.703484 32.388 0.569484 32.524 0.457484C32.656 0.341484 32.832 0.281484 33.052 0.277484C33.244 0.277484 33.416 0.331484 33.568 0.439484C33.72 0.543484 33.84 0.695484 33.928 0.895484C34.012 1.09148 34.054 1.32148 34.054 1.58548Z" fill="white"/>
</svg>
