<svg width="123" height="103" viewBox="0 0 123 103" fill="none" xmlns="http://www.w3.org/2000/svg">
<path d="M2.66602 96.418V98H0C0.351562 92.8828 0.553385 88.4362 0.605469 84.6602H3.47656L3.20312 88.1367C4.24479 87.9284 5.1237 87.8242 5.83984 87.8242C7.42839 87.8242 8.64583 88.2376 9.49219 89.0645C10.3385 89.8848 10.7617 91.0697 10.7617 92.6191C10.7617 93.2181 10.6999 93.791 10.5762 94.3379C10.459 94.8783 10.2734 95.3893 10.0195 95.8711C9.76562 96.3464 9.45312 96.7598 9.08203 97.1113C8.71745 97.4629 8.27148 97.7396 7.74414 97.9414C7.2168 98.1432 6.63737 98.2441 6.00586 98.2441C5.2832 98.2441 4.63867 98.0911 4.07227 97.7852C3.51237 97.4727 3.05664 97.0169 2.70508 96.418H2.66602ZM5.26367 89.7773C4.67122 89.7773 3.95833 89.9108 3.125 90.1777C2.98828 91.1738 2.91992 92.2871 2.91992 93.5176C2.91992 94.2923 3.16406 94.9466 3.65234 95.4805C4.14062 96.0143 4.73633 96.2812 5.43945 96.2812C5.86914 96.2812 6.25326 96.1771 6.5918 95.9688C6.93034 95.7604 7.19401 95.487 7.38281 95.1484C7.57812 94.8099 7.72461 94.4453 7.82227 94.0547C7.92643 93.6641 7.97852 93.2669 7.97852 92.8633C7.97852 91.9323 7.75391 91.1868 7.30469 90.627C6.85547 90.0605 6.17513 89.7773 5.26367 89.7773Z" fill="white"/>
<path d="M17.8027 96.3398L17.3047 98.0586C16.6732 98.1823 16.0579 98.2441 15.459 98.2441C14.847 98.2441 14.3132 98.1725 13.8574 98.0293C13.4017 97.8861 13.0534 97.7168 12.8125 97.5215C12.5716 97.3197 12.3763 97.0788 12.2266 96.7988C12.0833 96.5189 11.9922 96.2747 11.9531 96.0664C11.9206 95.8581 11.9043 95.6432 11.9043 95.4219C11.9043 94.875 12.0345 94.3997 12.2949 93.9961C12.5553 93.5924 12.8906 93.2799 13.3008 93.0586C13.7174 92.8307 14.1732 92.6387 14.668 92.4824C15.1693 92.3197 15.6706 92.1862 16.1719 92.082C16.6732 91.9714 17.1289 91.8574 17.5391 91.7402C17.9557 91.6165 18.2943 91.4538 18.5547 91.252C18.8151 91.0501 18.9453 90.806 18.9453 90.5195C18.9453 89.7839 18.3366 89.416 17.1191 89.416C15.9733 89.416 14.6745 89.696 13.2227 90.2559L13.5254 88.4004C15.1139 88.0163 16.5527 87.8242 17.8418 87.8242C18.3366 87.8242 18.7891 87.86 19.1992 87.9316C19.6159 88.0033 20.0228 88.127 20.4199 88.3027C20.8236 88.4785 21.1393 88.7454 21.3672 89.1035C21.6016 89.4616 21.7188 89.901 21.7188 90.4219C21.7188 90.7604 21.6634 91.8249 21.5527 93.6152C21.4421 95.4056 21.3867 96.8672 21.3867 98H18.6035C18.6947 97.1732 18.8086 95.4609 18.9453 92.8633C18.7891 93 18.5612 93.1302 18.2617 93.2539C17.9622 93.3711 17.6562 93.4688 17.3438 93.5469C17.0312 93.625 16.7057 93.7227 16.3672 93.8398C16.0286 93.957 15.7259 94.0775 15.459 94.2012C15.1986 94.3249 14.9837 94.4974 14.8145 94.7188C14.6452 94.9336 14.5605 95.181 14.5605 95.4609C14.5605 95.7539 14.6484 95.9948 14.8242 96.1836C15 96.3659 15.2051 96.4896 15.4395 96.5547C15.6738 96.6133 15.9408 96.6426 16.2402 96.6426C16.709 96.6426 17.2298 96.5417 17.8027 96.3398Z" fill="white"/>
<path d="M26.8262 88.0586L26.7676 89.3965H26.8066C27.4642 88.3483 28.3594 87.8242 29.4922 87.8242C29.7526 87.8242 30.0391 87.8568 30.3516 87.9219L30.4297 90.2559C30.026 90.1257 29.6647 90.0605 29.3457 90.0605C28.6556 90.0605 28.0957 90.2689 27.666 90.6855C27.2428 91.1022 26.9564 91.6751 26.8066 92.4043C26.6504 93.1595 26.5723 94.6113 26.5723 96.7598V98H23.7891C23.7956 97.8568 23.8184 97.4661 23.8574 96.8281C23.903 96.1901 23.9323 95.7604 23.9453 95.5391C23.9583 95.3177 23.9811 94.9173 24.0137 94.3379C24.0462 93.7585 24.0658 93.2832 24.0723 92.9121C24.0853 92.541 24.1016 92.0755 24.1211 91.5156C24.1406 90.9492 24.1536 90.3861 24.1602 89.8262C24.1667 89.2663 24.1699 88.6771 24.1699 88.0586H26.8262Z" fill="white"/>
<path d="M38.9062 98V96.4375H38.8672C38.1901 97.6419 36.9694 98.2441 35.2051 98.2441C34.6842 98.2441 34.209 98.1855 33.7793 98.0684C33.3496 97.9577 32.9622 97.7852 32.6172 97.5508C32.2786 97.3164 32.015 96.9974 31.8262 96.5938C31.6374 96.1901 31.543 95.7181 31.543 95.1777C31.543 94.748 31.5951 93.7747 31.6992 92.2578C31.8034 90.7409 31.8587 89.3411 31.8652 88.0586H34.707C34.6484 88.6641 34.5703 89.6667 34.4727 91.0664C34.375 92.4596 34.3262 93.4036 34.3262 93.8984C34.3262 95.2982 35.0065 95.998 36.3672 95.998C37.0833 95.998 37.653 95.7897 38.0762 95.373C38.5059 94.9564 38.7891 94.3867 38.9258 93.6641C39.082 92.8112 39.1895 90.9427 39.248 88.0586H42.041C41.7415 91.8151 41.5755 95.1289 41.543 98H38.9062Z" fill="white"/>
<path d="M51.9238 95.7246L51.582 97.9023C50.6706 98.1302 49.7493 98.2441 48.8184 98.2441C47.2298 98.2441 46.0059 97.8177 45.1465 96.9648C44.2871 96.1055 43.8574 94.8783 43.8574 93.2832C43.8574 93.1335 43.8574 93 43.8574 92.8828C43.8639 92.7656 43.8835 92.5671 43.916 92.2871C43.9486 92.0007 43.9941 91.7435 44.0527 91.5156C44.1113 91.2878 44.2025 91.0143 44.3262 90.6953C44.4499 90.3698 44.5964 90.0833 44.7656 89.8359C44.9349 89.5885 45.1562 89.3346 45.4297 89.0742C45.7096 88.8073 46.0189 88.5892 46.3574 88.4199C46.7025 88.2441 47.1159 88.1009 47.5977 87.9902C48.0794 87.8796 48.6068 87.8242 49.1797 87.8242C50.2474 87.8242 51.2207 87.9479 52.0996 88.1953L52.2656 90.3633C51.3216 90.0443 50.459 89.8848 49.6777 89.8848C48.6882 89.8848 47.9329 90.1842 47.4121 90.7832C46.8978 91.3822 46.6406 92.1862 46.6406 93.1953C46.6406 94.1328 46.8815 94.8652 47.3633 95.3926C47.8451 95.9199 48.5514 96.1836 49.4824 96.1836C50.2246 96.1836 51.0384 96.0306 51.9238 95.7246Z" fill="white"/>
<path d="M54.5312 84.6602H57.3828C57.2005 87.3164 57.0964 88.9961 57.0703 89.6992L57.1094 89.7383C57.5065 89.0352 58.0241 88.5404 58.6621 88.2539C59.3066 87.9674 60.0944 87.8242 61.0254 87.8242C61.5788 87.8242 62.0736 87.8796 62.5098 87.9902C62.946 88.1009 63.3333 88.2767 63.6719 88.5176C64.0169 88.7585 64.2806 89.0872 64.4629 89.5039C64.6517 89.9141 64.7461 90.4056 64.7461 90.9785C64.7461 91.2389 64.6973 92.1895 64.5996 93.8301C64.5085 95.4642 64.4629 96.8542 64.4629 98H61.5039C61.8099 95.7669 61.9629 93.8333 61.9629 92.1992C61.9629 91.4766 61.7904 90.9395 61.4453 90.5879C61.1068 90.2363 60.5729 90.0605 59.8438 90.0605C59.0951 90.0605 58.4928 90.3014 58.0371 90.7832C57.5814 91.2585 57.2786 91.8835 57.1289 92.6582C57.0898 92.8796 57.0508 93.127 57.0117 93.4004C56.9792 93.6738 56.9499 93.9668 56.9238 94.2793C56.9043 94.5853 56.8848 94.8717 56.8652 95.1387C56.8522 95.4056 56.8392 95.7083 56.8262 96.0469C56.8197 96.3789 56.8132 96.6361 56.8066 96.8184C56.8066 97.0007 56.8034 97.235 56.7969 97.5215C56.7904 97.8079 56.7871 97.9674 56.7871 98H53.9258C54.2904 93.5078 54.4922 89.0612 54.5312 84.6602Z" fill="white"/>
<path d="M73.9648 102.18L73.8281 100.002C75.319 100.523 76.6048 100.783 77.6855 100.783C78.2324 100.783 78.6947 100.699 79.0723 100.529C79.4499 100.367 79.7363 100.191 79.9316 100.002C80.127 99.8132 80.2799 99.4974 80.3906 99.0547C80.5078 98.6185 80.5762 98.2767 80.5957 98.0293C80.6217 97.7884 80.6445 97.375 80.6641 96.7891C80.6706 96.6068 80.6771 96.4701 80.6836 96.3789H80.6445C80.2604 96.9453 79.7624 97.3783 79.1504 97.6777C78.5449 97.9707 77.8776 98.1172 77.1484 98.1172C75.8203 98.1172 74.7689 97.7233 73.9941 96.9355C73.2259 96.1478 72.8418 95.0898 72.8418 93.7617C72.8418 93.4753 72.8613 93.1823 72.9004 92.8828C72.9395 92.5768 73.0176 92.222 73.1348 91.8184C73.2585 91.4147 73.4147 91.0371 73.6035 90.6855C73.7988 90.3275 74.069 89.9694 74.4141 89.6113C74.7591 89.2533 75.1562 88.9473 75.6055 88.6934C76.0547 88.4329 76.6146 88.2246 77.2852 88.0684C77.9557 87.9056 78.6947 87.8242 79.502 87.8242C80.6608 87.8242 82.0964 87.9837 83.8086 88.3027C83.5221 91.7533 83.3496 95.207 83.291 98.6641C83.278 99.4388 83.1543 100.093 82.9199 100.627C82.6855 101.167 82.3438 101.587 81.8945 101.887C81.4518 102.193 80.9473 102.411 80.3809 102.541C79.821 102.671 79.1634 102.736 78.4082 102.736C76.9499 102.736 75.4688 102.551 73.9648 102.18ZM80.9668 89.9434C80.3809 89.8327 79.8535 89.7773 79.3848 89.7773C78.7402 89.7773 78.1771 89.8783 77.6953 90.0801C77.2135 90.2754 76.8457 90.513 76.5918 90.793C76.3379 91.0664 76.1328 91.3919 75.9766 91.7695C75.8203 92.1406 75.7227 92.4629 75.6836 92.7363C75.6445 93.0033 75.625 93.2702 75.625 93.5371C75.625 94.3379 75.8333 94.9759 76.25 95.4512C76.6732 95.9264 77.2786 96.1641 78.0664 96.1641C78.7826 96.1641 79.3717 95.9069 79.834 95.3926C80.2962 94.8783 80.5924 94.2467 80.7227 93.498C80.7617 93.2311 80.7943 92.9349 80.8203 92.6094C80.8529 92.2773 80.8757 92.0039 80.8887 91.7891C80.9017 91.5742 80.9147 91.2552 80.9277 90.832C80.9473 90.4089 80.9603 90.1126 80.9668 89.9434Z" fill="white"/>
<path d="M95.5566 93.1758H88.3984V93.498C88.3984 94.4095 88.6784 95.1224 89.2383 95.6367C89.7982 96.1445 90.5371 96.3984 91.4551 96.3984C92.3275 96.3984 93.4342 96.1868 94.7754 95.7637L94.4238 97.8633C93.3171 98.1172 92.2363 98.2441 91.1816 98.2441C90.4785 98.2441 89.8372 98.1758 89.2578 98.0391C88.6849 97.9089 88.2096 97.7396 87.832 97.5312C87.4544 97.3164 87.1224 97.0592 86.8359 96.7598C86.556 96.4603 86.3379 96.1673 86.1816 95.8809C86.0319 95.5944 85.9115 95.2819 85.8203 94.9434C85.7292 94.6048 85.6706 94.3216 85.6445 94.0938C85.625 93.8594 85.6152 93.6217 85.6152 93.3809C85.6152 93.0879 85.6315 92.7949 85.6641 92.502C85.6966 92.2025 85.7617 91.8639 85.8594 91.4863C85.9635 91.1087 86.097 90.7572 86.2598 90.4316C86.4225 90.0996 86.6439 89.7708 86.9238 89.4453C87.2038 89.1198 87.526 88.8398 87.8906 88.6055C88.2552 88.3711 88.7044 88.1823 89.2383 88.0391C89.7786 87.8958 90.3711 87.8242 91.0156 87.8242C91.9336 87.8242 92.7376 87.974 93.4277 88.2734C94.1178 88.5729 94.6647 89.0449 95.0684 89.6895C95.4785 90.3275 95.6836 91.1055 95.6836 92.0234C95.6836 92.3229 95.6413 92.707 95.5566 93.1758ZM88.4766 91.8379H93.0176C93.0176 91.0371 92.8581 90.4447 92.5391 90.0605C92.2266 89.6764 91.6992 89.4844 90.957 89.4844C90.2799 89.4844 89.7201 89.709 89.2773 90.1582C88.8346 90.6009 88.5677 91.1608 88.4766 91.8379Z" fill="white"/>
<path d="M100.146 88.0586L100.088 89.3965H100.127C100.785 88.3483 101.68 87.8242 102.812 87.8242C103.073 87.8242 103.359 87.8568 103.672 87.9219L103.75 90.2559C103.346 90.1257 102.985 90.0605 102.666 90.0605C101.976 90.0605 101.416 90.2689 100.986 90.6855C100.563 91.1022 100.277 91.6751 100.127 92.4043C99.9707 93.1595 99.8926 94.6113 99.8926 96.7598V98H97.1094C97.1159 97.8568 97.1387 97.4661 97.1777 96.8281C97.2233 96.1901 97.2526 95.7604 97.2656 95.5391C97.2786 95.3177 97.3014 94.9173 97.334 94.3379C97.3665 93.7585 97.3861 93.2832 97.3926 92.9121C97.4056 92.541 97.4219 92.0755 97.4414 91.5156C97.4609 90.9492 97.474 90.3861 97.4805 89.8262C97.487 89.2663 97.4902 88.6771 97.4902 88.0586H100.146Z" fill="white"/>
<path d="M110.264 96.3398L109.766 98.0586C109.134 98.1823 108.519 98.2441 107.92 98.2441C107.308 98.2441 106.774 98.1725 106.318 98.0293C105.863 97.8861 105.514 97.7168 105.273 97.5215C105.033 97.3197 104.837 97.0788 104.688 96.7988C104.544 96.5189 104.453 96.2747 104.414 96.0664C104.382 95.8581 104.365 95.6432 104.365 95.4219C104.365 94.875 104.495 94.3997 104.756 93.9961C105.016 93.5924 105.352 93.2799 105.762 93.0586C106.178 92.8307 106.634 92.6387 107.129 92.4824C107.63 92.3197 108.132 92.1862 108.633 92.082C109.134 91.9714 109.59 91.8574 110 91.7402C110.417 91.6165 110.755 91.4538 111.016 91.252C111.276 91.0501 111.406 90.806 111.406 90.5195C111.406 89.7839 110.798 89.416 109.58 89.416C108.434 89.416 107.135 89.696 105.684 90.2559L105.986 88.4004C107.575 88.0163 109.014 87.8242 110.303 87.8242C110.798 87.8242 111.25 87.86 111.66 87.9316C112.077 88.0033 112.484 88.127 112.881 88.3027C113.285 88.4785 113.6 88.7454 113.828 89.1035C114.062 89.4616 114.18 89.901 114.18 90.4219C114.18 90.7604 114.124 91.8249 114.014 93.6152C113.903 95.4056 113.848 96.8672 113.848 98H111.064C111.156 97.1732 111.27 95.4609 111.406 92.8633C111.25 93 111.022 93.1302 110.723 93.2539C110.423 93.3711 110.117 93.4688 109.805 93.5469C109.492 93.625 109.167 93.7227 108.828 93.8398C108.49 93.957 108.187 94.0775 107.92 94.2012C107.66 94.3249 107.445 94.4974 107.275 94.7188C107.106 94.9336 107.021 95.181 107.021 95.4609C107.021 95.7539 107.109 95.9948 107.285 96.1836C107.461 96.3659 107.666 96.4896 107.9 96.5547C108.135 96.6133 108.402 96.6426 108.701 96.6426C109.17 96.6426 109.691 96.5417 110.264 96.3398Z" fill="white"/>
<path d="M57.7012 76C78.688 76 95.7012 58.9868 95.7012 38C95.7012 34.5788 95.249 31.2631 94.4013 28.1096H69.6738C66.6168 28.1096 65.0885 28.6021 62.5411 30.0795C60.5032 31.2615 59.6542 33.5269 59.4842 34.5119C59.1446 35.8252 58.4655 39.3382 60.5032 42.8841C62.5411 46.43 67.8056 46.9882 70.1831 46.824H81.3917V35.0044H72.2211V38.9443H77.3158V42.8841H69.1644L68.9936 42.8847C67.9029 42.8899 65.7376 42.9001 64.5791 41.4067C63.4892 40.0021 63.5327 38.4932 63.555 37.7168C63.5576 37.622 63.5601 37.5382 63.5601 37.4668C63.5601 36.646 63.8659 34.7089 65.0885 33.5269C66.3113 32.3449 68.6548 31.557 69.6738 31.557H92.4584C92.8432 33.6461 93.0443 35.7996 93.0443 38C93.0443 57.5194 77.2207 73.3431 57.7012 73.3431C42.3842 73.3431 29.343 63.5996 24.4374 49.9726H21.6258C26.6414 65.0931 40.8975 76 57.7012 76Z" fill="white"/>
<path fill-rule="evenodd" clip-rule="evenodd" d="M23.4683 46.824C23.4706 46.8324 23.4726 46.8409 23.4749 46.8493H20.7369C20.0596 44.0099 19.7012 41.0468 19.7012 38C19.7012 17.0132 36.7143 0 57.7012 0C74.1167 0 88.1011 10.4088 93.4144 24.9863H90.5714C85.3888 11.9069 72.6252 2.65694 57.7012 2.65694C38.1816 2.65694 22.3581 18.4806 22.3581 38C22.3581 39.6571 22.4722 41.2876 22.6928 42.8841H33.5013V35.4969H49.8042C52.6573 33.5269 50.993 32.0495 49.8042 31.557H33.5013V28.1096H51.8422C57.4465 29.587 55.2387 35.3327 53.3706 37.4668C58.6691 42.9826 54.3895 46.824 51.1465 46.824H23.4683ZM37.4412 43.0891V39.6417H49.6685C52.9293 41.2177 51.0271 42.5966 49.6685 43.0891H37.4412Z" fill="white"/>
<path d="M116.139 85.5C116.139 86.3122 116.461 87.0912 117.036 87.6655C117.61 88.2398 118.389 88.5625 119.201 88.5625C120.013 88.5625 120.792 88.2398 121.367 87.6655C121.941 87.0912 122.264 86.3122 122.264 85.5C122.264 84.6878 121.941 83.9088 121.367 83.3345C120.792 82.7602 120.013 82.4375 119.201 82.4375C118.389 82.4375 117.61 82.7602 117.036 83.3345C116.461 83.9088 116.139 84.6878 116.139 85.5ZM122.701 85.5C122.701 86.4283 122.332 87.3185 121.676 87.9749C121.02 88.6313 120.129 89 119.201 89C118.273 89 117.383 88.6313 116.726 87.9749C116.07 87.3185 115.701 86.4283 115.701 85.5C115.701 84.5717 116.07 83.6815 116.726 83.0251C117.383 82.3687 118.273 82 119.201 82C120.129 82 121.02 82.3687 121.676 83.0251C122.332 83.6815 122.701 84.5717 122.701 85.5ZM118.107 83.7509H119.468C120.216 83.7509 120.667 84.1766 120.667 84.8271C120.667 85.325 120.375 85.6759 120.013 85.8071L120.732 87.25H120.067L119.429 85.9043H118.692V87.25H118.107V83.7509ZM118.691 84.2278V85.4427H119.369C119.804 85.4427 120.057 85.2401 120.057 84.8477C120.057 84.4482 119.797 84.2278 119.385 84.2278H118.691Z" fill="white"/>
</svg>
