<svg width="169" height="34" viewBox="0 0 169 34" fill="none" xmlns="http://www.w3.org/2000/svg">
<g filter="url(#filter0_dd_103_98)">
<path d="M8.55078 16.7852V19H4.81836C5.31055 11.8359 5.5931 5.61068 5.66602 0.324219H9.68555L9.30273 5.19141C10.7611 4.89974 11.9915 4.75391 12.9941 4.75391C15.2181 4.75391 16.9225 5.33268 18.1074 6.49023C19.2923 7.63867 19.8848 9.29753 19.8848 11.4668C19.8848 12.3053 19.7982 13.1074 19.625 13.873C19.4609 14.6296 19.2012 15.3451 18.8457 16.0195C18.4902 16.6849 18.0527 17.2637 17.5332 17.7559C17.0228 18.248 16.3984 18.6354 15.6602 18.918C14.9219 19.2005 14.1107 19.3418 13.2266 19.3418C12.2148 19.3418 11.3125 19.1276 10.5195 18.6992C9.73568 18.2617 9.09766 17.6237 8.60547 16.7852H8.55078ZM12.1875 7.48828C11.3581 7.48828 10.36 7.67513 9.19336 8.04883C9.00195 9.44336 8.90625 11.002 8.90625 12.7246C8.90625 13.8092 9.24805 14.7253 9.93164 15.4727C10.6152 16.2201 11.4492 16.5938 12.4336 16.5938C13.0352 16.5938 13.5729 16.4479 14.0469 16.1562C14.5208 15.8646 14.89 15.4818 15.1543 15.0078C15.4277 14.5339 15.6328 14.0234 15.7695 13.4766C15.9154 12.9297 15.9883 12.3737 15.9883 11.8086C15.9883 10.5052 15.6738 9.46159 15.0449 8.67773C14.416 7.88477 13.4635 7.48828 12.1875 7.48828ZM29.7422 16.6758L29.0449 19.082C28.1608 19.2552 27.2995 19.3418 26.4609 19.3418C25.6042 19.3418 24.8568 19.2415 24.2188 19.041C23.5807 18.8405 23.0931 18.6035 22.7559 18.3301C22.4186 18.0475 22.1452 17.7103 21.9355 17.3184C21.735 16.9264 21.6074 16.5846 21.5527 16.293C21.5072 16.0013 21.4844 15.7005 21.4844 15.3906C21.4844 14.625 21.6667 13.9596 22.0312 13.3945C22.3958 12.8294 22.8652 12.3919 23.4395 12.082C24.0228 11.763 24.6608 11.4941 25.3535 11.2754C26.0553 11.0475 26.7572 10.8607 27.459 10.7148C28.1608 10.5599 28.7988 10.4004 29.373 10.2363C29.9564 10.0632 30.4303 9.83529 30.7949 9.55273C31.1595 9.27018 31.3418 8.92839 31.3418 8.52734C31.3418 7.4974 30.4896 6.98242 28.7852 6.98242C27.181 6.98242 25.3626 7.37435 23.3301 8.1582L23.7539 5.56055C25.9779 5.02279 27.9922 4.75391 29.7969 4.75391C30.4896 4.75391 31.123 4.80404 31.6973 4.9043C32.2806 5.00456 32.8503 5.17773 33.4062 5.42383C33.9714 5.66992 34.4134 6.04362 34.7324 6.54492C35.0605 7.04622 35.2246 7.66146 35.2246 8.39062C35.2246 8.86458 35.1471 10.3548 34.9922 12.8613C34.8372 15.3678 34.7598 17.4141 34.7598 19H30.8633C30.9909 17.8424 31.1504 15.4453 31.3418 11.8086C31.123 12 30.804 12.1823 30.3848 12.3555C29.9655 12.5195 29.5371 12.6562 29.0996 12.7656C28.6621 12.875 28.2064 13.0117 27.7324 13.1758C27.2585 13.3398 26.8346 13.5085 26.4609 13.6816C26.0964 13.8548 25.7956 14.0964 25.5586 14.4062C25.3216 14.707 25.2031 15.0534 25.2031 15.4453C25.2031 15.8555 25.3262 16.1927 25.5723 16.457C25.8184 16.7122 26.1055 16.8854 26.4336 16.9766C26.7617 17.0586 27.1354 17.0996 27.5547 17.0996C28.2109 17.0996 28.9401 16.9583 29.7422 16.6758ZM42.375 5.08203L42.293 6.95508H42.3477C43.2682 5.48763 44.5215 4.75391 46.1074 4.75391C46.472 4.75391 46.873 4.79948 47.3105 4.89062L47.4199 8.1582C46.8548 7.97591 46.349 7.88477 45.9023 7.88477C44.9362 7.88477 44.1523 8.17643 43.5508 8.75977C42.9583 9.3431 42.5573 10.1452 42.3477 11.166C42.1289 12.2233 42.0195 14.2559 42.0195 17.2637V19H38.123C38.1322 18.7995 38.1641 18.2526 38.2188 17.3594C38.2826 16.4661 38.3236 15.8646 38.3418 15.5547C38.36 15.2448 38.3919 14.6842 38.4375 13.873C38.4831 13.0618 38.5104 12.3965 38.5195 11.877C38.5378 11.3574 38.5605 10.7057 38.5879 9.92188C38.6152 9.12891 38.6335 8.34049 38.6426 7.55664C38.6517 6.77279 38.6562 5.94792 38.6562 5.08203H42.375ZM59.2871 19V16.8125H59.2324C58.2845 18.4987 56.5755 19.3418 54.1055 19.3418C53.3763 19.3418 52.7109 19.2598 52.1094 19.0957C51.5078 18.9408 50.9655 18.6992 50.4824 18.3711C50.0085 18.043 49.6393 17.5964 49.375 17.0312C49.1107 16.4661 48.9785 15.8053 48.9785 15.0488C48.9785 14.4473 49.0514 13.0846 49.1973 10.9609C49.3431 8.83724 49.4206 6.8776 49.4297 5.08203H53.4082C53.3262 5.92969 53.2168 7.33333 53.0801 9.29297C52.9434 11.2435 52.875 12.5651 52.875 13.2578C52.875 15.2174 53.8275 16.1973 55.7324 16.1973C56.735 16.1973 57.5326 15.9056 58.125 15.3223C58.7266 14.7389 59.123 13.9414 59.3145 12.9297C59.5332 11.7357 59.6836 9.11979 59.7656 5.08203H63.6758C63.2565 10.3411 63.0241 14.9805 62.9785 19H59.2871ZM77.5117 15.8145L77.0332 18.8633C75.7572 19.1823 74.4674 19.3418 73.1641 19.3418C70.9401 19.3418 69.2266 18.7448 68.0234 17.5508C66.8203 16.3477 66.2188 14.6296 66.2188 12.3965C66.2188 12.1868 66.2188 12 66.2188 11.8359C66.2279 11.6719 66.2552 11.3939 66.3008 11.002C66.3464 10.6009 66.4102 10.2409 66.4922 9.92188C66.5742 9.60286 66.7018 9.22005 66.875 8.77344C67.0482 8.31771 67.2533 7.91667 67.4902 7.57031C67.7272 7.22396 68.0371 6.86849 68.4199 6.50391C68.8118 6.13021 69.2448 5.82487 69.7188 5.58789C70.2018 5.3418 70.7806 5.14128 71.4551 4.98633C72.1296 4.83138 72.8678 4.75391 73.6699 4.75391C75.1647 4.75391 76.5273 4.92708 77.7578 5.27344L77.9902 8.30859C76.6686 7.86198 75.4609 7.63867 74.3672 7.63867C72.9818 7.63867 71.9245 8.05794 71.1953 8.89648C70.4753 9.73503 70.1152 10.8607 70.1152 12.2734C70.1152 13.5859 70.4525 14.6113 71.127 15.3496C71.8014 16.0879 72.7904 16.457 74.0938 16.457C75.1328 16.457 76.2721 16.2428 77.5117 15.8145ZM81.1621 0.324219H85.1543C84.8991 4.04297 84.7533 6.39453 84.7168 7.37891L84.7715 7.43359C85.3275 6.44922 86.0521 5.75651 86.9453 5.35547C87.8477 4.95443 88.9505 4.75391 90.2539 4.75391C91.0286 4.75391 91.7214 4.83138 92.332 4.98633C92.9427 5.14128 93.485 5.38737 93.959 5.72461C94.4421 6.06185 94.8112 6.52214 95.0664 7.10547C95.3307 7.67969 95.4629 8.36784 95.4629 9.16992C95.4629 9.53451 95.3945 10.8652 95.2578 13.1621C95.1302 15.4499 95.0664 17.3958 95.0664 19H90.9238C91.3522 15.8737 91.5664 13.1667 91.5664 10.8789C91.5664 9.86719 91.3249 9.11523 90.8418 8.62305C90.3678 8.13086 89.6204 7.88477 88.5996 7.88477C87.5514 7.88477 86.7083 8.22201 86.0703 8.89648C85.4323 9.56185 85.0085 10.4368 84.7988 11.5215C84.7441 11.8314 84.6895 12.1777 84.6348 12.5605C84.5892 12.9434 84.5482 13.3535 84.5117 13.791C84.4844 14.2194 84.457 14.6204 84.4297 14.9941C84.4115 15.3678 84.3932 15.7917 84.375 16.2656C84.3659 16.7305 84.3568 17.0905 84.3477 17.3457C84.3477 17.6009 84.3431 17.929 84.334 18.3301C84.3249 18.7311 84.3203 18.9544 84.3203 19H80.3145C80.8249 12.7109 81.1074 6.48568 81.1621 0.324219ZM108.369 24.8516L108.178 21.8027C110.265 22.5319 112.065 22.8965 113.578 22.8965C114.344 22.8965 114.991 22.778 115.52 22.541C116.048 22.3132 116.449 22.0671 116.723 21.8027C116.996 21.5384 117.21 21.0964 117.365 20.4766C117.529 19.8659 117.625 19.3874 117.652 19.041C117.689 18.7038 117.721 18.125 117.748 17.3047C117.757 17.0495 117.766 16.8581 117.775 16.7305H117.721C117.183 17.5234 116.486 18.1296 115.629 18.5488C114.781 18.959 113.847 19.1641 112.826 19.1641C110.967 19.1641 109.495 18.6126 108.41 17.5098C107.335 16.4069 106.797 14.9258 106.797 13.0664C106.797 12.6654 106.824 12.2552 106.879 11.8359C106.934 11.4076 107.043 10.9108 107.207 10.3457C107.38 9.7806 107.599 9.25195 107.863 8.75977C108.137 8.25846 108.515 7.75716 108.998 7.25586C109.481 6.75456 110.037 6.32617 110.666 5.9707C111.295 5.60612 112.079 5.31445 113.018 5.0957C113.956 4.86784 114.991 4.75391 116.121 4.75391C117.743 4.75391 119.753 4.97721 122.15 5.42383C121.749 10.2546 121.508 15.0898 121.426 19.9297C121.408 21.0143 121.234 21.9303 120.906 22.6777C120.578 23.4342 120.1 24.0221 119.471 24.4414C118.851 24.8698 118.145 25.1751 117.352 25.3574C116.568 25.5397 115.647 25.6309 114.59 25.6309C112.548 25.6309 110.475 25.3711 108.369 24.8516ZM118.172 7.7207C117.352 7.56576 116.613 7.48828 115.957 7.48828C115.055 7.48828 114.266 7.62956 113.592 7.91211C112.917 8.18555 112.402 8.51823 112.047 8.91016C111.691 9.29297 111.404 9.7487 111.186 10.2773C110.967 10.7969 110.83 11.248 110.775 11.6309C110.721 12.0046 110.693 12.3783 110.693 12.752C110.693 13.873 110.985 14.7663 111.568 15.4316C112.161 16.097 113.008 16.4297 114.111 16.4297C115.114 16.4297 115.939 16.0697 116.586 15.3496C117.233 14.6296 117.648 13.7454 117.83 12.6973C117.885 12.3236 117.93 11.9089 117.967 11.4531C118.012 10.9883 118.044 10.6055 118.062 10.3047C118.081 10.0039 118.099 9.55729 118.117 8.96484C118.145 8.3724 118.163 7.95768 118.172 7.7207ZM138.598 12.2461H128.576V12.6973C128.576 13.9733 128.968 14.9714 129.752 15.6914C130.536 16.4023 131.57 16.7578 132.855 16.7578C134.077 16.7578 135.626 16.4616 137.504 15.8691L137.012 18.8086C135.462 19.1641 133.949 19.3418 132.473 19.3418C131.488 19.3418 130.59 19.2461 129.779 19.0547C128.977 18.8724 128.312 18.6354 127.783 18.3438C127.255 18.043 126.79 17.6829 126.389 17.2637C125.997 16.8444 125.691 16.4342 125.473 16.0332C125.263 15.6322 125.094 15.1947 124.967 14.7207C124.839 14.2467 124.757 13.8503 124.721 13.5312C124.693 13.2031 124.68 12.8704 124.68 12.5332C124.68 12.123 124.702 11.7129 124.748 11.3027C124.794 10.8835 124.885 10.4095 125.021 9.88086C125.167 9.35221 125.354 8.86003 125.582 8.4043C125.81 7.93945 126.12 7.47917 126.512 7.02344C126.904 6.56771 127.355 6.17578 127.865 5.84766C128.376 5.51953 129.005 5.25521 129.752 5.05469C130.508 4.85417 131.338 4.75391 132.24 4.75391C133.525 4.75391 134.651 4.96354 135.617 5.38281C136.583 5.80208 137.349 6.46289 137.914 7.36523C138.488 8.25846 138.775 9.34766 138.775 10.6328C138.775 11.0521 138.716 11.5898 138.598 12.2461ZM128.686 10.373H135.043C135.043 9.25195 134.82 8.42253 134.373 7.88477C133.936 7.34701 133.197 7.07812 132.158 7.07812C131.21 7.07812 130.426 7.39258 129.807 8.02148C129.187 8.64128 128.813 9.42513 128.686 10.373ZM145.023 5.08203L144.941 6.95508H144.996C145.917 5.48763 147.17 4.75391 148.756 4.75391C149.12 4.75391 149.521 4.79948 149.959 4.89062L150.068 8.1582C149.503 7.97591 148.997 7.88477 148.551 7.88477C147.585 7.88477 146.801 8.17643 146.199 8.75977C145.607 9.3431 145.206 10.1452 144.996 11.166C144.777 12.2233 144.668 14.2559 144.668 17.2637V19H140.771C140.781 18.7995 140.812 18.2526 140.867 17.3594C140.931 16.4661 140.972 15.8646 140.99 15.5547C141.008 15.2448 141.04 14.6842 141.086 13.873C141.132 13.0618 141.159 12.3965 141.168 11.877C141.186 11.3574 141.209 10.7057 141.236 9.92188C141.264 9.12891 141.282 8.34049 141.291 7.55664C141.3 6.77279 141.305 5.94792 141.305 5.08203H145.023ZM159.188 16.6758L158.49 19.082C157.606 19.2552 156.745 19.3418 155.906 19.3418C155.049 19.3418 154.302 19.2415 153.664 19.041C153.026 18.8405 152.538 18.6035 152.201 18.3301C151.864 18.0475 151.59 17.7103 151.381 17.3184C151.18 16.9264 151.053 16.5846 150.998 16.293C150.952 16.0013 150.93 15.7005 150.93 15.3906C150.93 14.625 151.112 13.9596 151.477 13.3945C151.841 12.8294 152.311 12.3919 152.885 12.082C153.468 11.763 154.106 11.4941 154.799 11.2754C155.501 11.0475 156.202 10.8607 156.904 10.7148C157.606 10.5599 158.244 10.4004 158.818 10.2363C159.402 10.0632 159.876 9.83529 160.24 9.55273C160.605 9.27018 160.787 8.92839 160.787 8.52734C160.787 7.4974 159.935 6.98242 158.23 6.98242C156.626 6.98242 154.808 7.37435 152.775 8.1582L153.199 5.56055C155.423 5.02279 157.438 4.75391 159.242 4.75391C159.935 4.75391 160.568 4.80404 161.143 4.9043C161.726 5.00456 162.296 5.17773 162.852 5.42383C163.417 5.66992 163.859 6.04362 164.178 6.54492C164.506 7.04622 164.67 7.66146 164.67 8.39062C164.67 8.86458 164.592 10.3548 164.438 12.8613C164.283 15.3678 164.205 17.4141 164.205 19H160.309C160.436 17.8424 160.596 15.4453 160.787 11.8086C160.568 12 160.249 12.1823 159.83 12.3555C159.411 12.5195 158.982 12.6562 158.545 12.7656C158.107 12.875 157.652 13.0117 157.178 13.1758C156.704 13.3398 156.28 13.5085 155.906 13.6816C155.542 13.8548 155.241 14.0964 155.004 14.4062C154.767 14.707 154.648 15.0534 154.648 15.4453C154.648 15.8555 154.771 16.1927 155.018 16.457C155.264 16.7122 155.551 16.8854 155.879 16.9766C156.207 17.0586 156.581 17.0996 157 17.0996C157.656 17.0996 158.385 16.9583 159.188 16.6758Z" fill="#F9F9F9"/>
</g>
<defs>
<filter id="filter0_dd_103_98" x="0.818359" y="0.324219" width="167.852" height="33.3066" filterUnits="userSpaceOnUse" color-interpolation-filters="sRGB">
<feFlood flood-opacity="0" result="BackgroundImageFix"/>
<feColorMatrix in="SourceAlpha" type="matrix" values="0 0 0 0 0 0 0 0 0 0 0 0 0 0 0 0 0 0 127 0" result="hardAlpha"/>
<feOffset dy="4"/>
<feGaussianBlur stdDeviation="2"/>
<feComposite in2="hardAlpha" operator="out"/>
<feColorMatrix type="matrix" values="0 0 0 0 0 0 0 0 0 0 0 0 0 0 0 0 0 0 0.25 0"/>
<feBlend mode="normal" in2="BackgroundImageFix" result="effect1_dropShadow_103_98"/>
<feColorMatrix in="SourceAlpha" type="matrix" values="0 0 0 0 0 0 0 0 0 0 0 0 0 0 0 0 0 0 127 0" result="hardAlpha"/>
<feOffset dy="4"/>
<feGaussianBlur stdDeviation="2"/>
<feComposite in2="hardAlpha" operator="out"/>
<feColorMatrix type="matrix" values="0 0 0 0 0 0 0 0 0 0 0 0 0 0 0 0 0 0 0.25 0"/>
<feBlend mode="normal" in2="effect1_dropShadow_103_98" result="effect2_dropShadow_103_98"/>
<feBlend mode="normal" in="SourceGraphic" in2="effect2_dropShadow_103_98" result="shape"/>
</filter>
</defs>
</svg>
