<svg width="144" height="144" viewBox="0 0 144 144" fill="none" xmlns="http://www.w3.org/2000/svg">
<path d="M13.3154 117.05V118.632H10.6494C11.001 113.515 11.2028 109.068 11.2549 105.292H14.126L13.8525 108.769C14.8942 108.56 15.7731 108.456 16.4893 108.456C18.0778 108.456 19.2952 108.869 20.1416 109.696C20.988 110.517 21.4111 111.701 21.4111 113.251C21.4111 113.85 21.3493 114.423 21.2256 114.97C21.1084 115.51 20.9229 116.021 20.6689 116.503C20.415 116.978 20.1025 117.392 19.7314 117.743C19.3669 118.095 18.9209 118.371 18.3936 118.573C17.8662 118.775 17.2868 118.876 16.6553 118.876C15.9326 118.876 15.2881 118.723 14.7217 118.417C14.1618 118.104 13.7061 117.649 13.3545 117.05H13.3154ZM15.9131 110.409C15.3206 110.409 14.6077 110.543 13.7744 110.81C13.6377 111.806 13.5693 112.919 13.5693 114.149C13.5693 114.924 13.8135 115.578 14.3018 116.112C14.79 116.646 15.3857 116.913 16.0889 116.913C16.5186 116.913 16.9027 116.809 17.2412 116.601C17.5798 116.392 17.8434 116.119 18.0322 115.78C18.2275 115.442 18.374 115.077 18.4717 114.687C18.5758 114.296 18.6279 113.899 18.6279 113.495C18.6279 112.564 18.4033 111.819 17.9541 111.259C17.5049 110.692 16.8245 110.409 15.9131 110.409Z" fill="#1D604C"/>
<path d="M28.4521 116.972L27.9541 118.69C27.3226 118.814 26.7074 118.876 26.1084 118.876C25.4964 118.876 24.9626 118.804 24.5068 118.661C24.0511 118.518 23.7028 118.349 23.4619 118.153C23.221 117.951 23.0257 117.711 22.876 117.431C22.7327 117.151 22.6416 116.907 22.6025 116.698C22.57 116.49 22.5537 116.275 22.5537 116.054C22.5537 115.507 22.6839 115.032 22.9443 114.628C23.2048 114.224 23.54 113.912 23.9502 113.69C24.3669 113.463 24.8226 113.271 25.3174 113.114C25.8187 112.951 26.32 112.818 26.8213 112.714C27.3226 112.603 27.7783 112.489 28.1885 112.372C28.6051 112.248 28.9437 112.086 29.2041 111.884C29.4645 111.682 29.5947 111.438 29.5947 111.151C29.5947 110.416 28.986 110.048 27.7686 110.048C26.6227 110.048 25.3239 110.328 23.8721 110.888L24.1748 109.032C25.7633 108.648 27.2021 108.456 28.4912 108.456C28.986 108.456 29.4385 108.492 29.8486 108.563C30.2653 108.635 30.6722 108.759 31.0693 108.935C31.473 109.11 31.7887 109.377 32.0166 109.735C32.251 110.093 32.3682 110.533 32.3682 111.054C32.3682 111.392 32.3128 112.457 32.2021 114.247C32.0915 116.037 32.0361 117.499 32.0361 118.632H29.2529C29.3441 117.805 29.458 116.093 29.5947 113.495C29.4385 113.632 29.2106 113.762 28.9111 113.886C28.6117 114.003 28.3057 114.101 27.9932 114.179C27.6807 114.257 27.3551 114.354 27.0166 114.472C26.6781 114.589 26.3753 114.709 26.1084 114.833C25.848 114.957 25.6331 115.129 25.4639 115.351C25.2946 115.565 25.21 115.813 25.21 116.093C25.21 116.386 25.2979 116.627 25.4736 116.815C25.6494 116.998 25.8545 117.121 26.0889 117.187C26.3232 117.245 26.5902 117.274 26.8896 117.274C27.3584 117.274 27.8792 117.174 28.4521 116.972Z" fill="#1D604C"/>
<path d="M37.4756 108.69L37.417 110.028H37.4561C38.1136 108.98 39.0088 108.456 40.1416 108.456C40.402 108.456 40.6885 108.489 41.001 108.554L41.0791 110.888C40.6755 110.757 40.3141 110.692 39.9951 110.692C39.305 110.692 38.7451 110.901 38.3154 111.317C37.8923 111.734 37.6058 112.307 37.4561 113.036C37.2998 113.791 37.2217 115.243 37.2217 117.392V118.632H34.4385C34.445 118.489 34.4678 118.098 34.5068 117.46C34.5524 116.822 34.5817 116.392 34.5947 116.171C34.6077 115.95 34.6305 115.549 34.6631 114.97C34.6956 114.39 34.7152 113.915 34.7217 113.544C34.7347 113.173 34.751 112.707 34.7705 112.147C34.79 111.581 34.8031 111.018 34.8096 110.458C34.8161 109.898 34.8193 109.309 34.8193 108.69H37.4756Z" fill="#1D604C"/>
<path d="M49.5557 118.632V117.069H49.5166C48.8395 118.274 47.6188 118.876 45.8545 118.876C45.3337 118.876 44.8584 118.817 44.4287 118.7C43.999 118.59 43.6117 118.417 43.2666 118.183C42.9281 117.948 42.6644 117.629 42.4756 117.226C42.2868 116.822 42.1924 116.35 42.1924 115.81C42.1924 115.38 42.2445 114.407 42.3486 112.89C42.4528 111.373 42.5081 109.973 42.5146 108.69H45.3564C45.2979 109.296 45.2197 110.299 45.1221 111.698C45.0244 113.091 44.9756 114.035 44.9756 114.53C44.9756 115.93 45.6559 116.63 47.0166 116.63C47.7327 116.63 48.3024 116.422 48.7256 116.005C49.1553 115.588 49.4385 115.019 49.5752 114.296C49.7314 113.443 49.8389 111.575 49.8975 108.69H52.6904C52.391 112.447 52.2249 115.761 52.1924 118.632H49.5557Z" fill="#1D604C"/>
<path d="M62.5732 116.356L62.2314 118.534C61.32 118.762 60.3988 118.876 59.4678 118.876C57.8792 118.876 56.6553 118.45 55.7959 117.597C54.9365 116.737 54.5068 115.51 54.5068 113.915C54.5068 113.765 54.5068 113.632 54.5068 113.515C54.5133 113.397 54.5329 113.199 54.5654 112.919C54.598 112.632 54.6436 112.375 54.7021 112.147C54.7607 111.92 54.8519 111.646 54.9756 111.327C55.0993 111.002 55.2458 110.715 55.415 110.468C55.5843 110.22 55.8057 109.966 56.0791 109.706C56.359 109.439 56.6683 109.221 57.0068 109.052C57.3519 108.876 57.7653 108.733 58.2471 108.622C58.7288 108.511 59.2562 108.456 59.8291 108.456C60.8968 108.456 61.8701 108.58 62.749 108.827L62.915 110.995C61.971 110.676 61.1084 110.517 60.3271 110.517C59.3376 110.517 58.5824 110.816 58.0615 111.415C57.5472 112.014 57.29 112.818 57.29 113.827C57.29 114.765 57.5309 115.497 58.0127 116.024C58.4945 116.552 59.2008 116.815 60.1318 116.815C60.874 116.815 61.6878 116.662 62.5732 116.356Z" fill="#1D604C"/>
<path d="M65.1807 105.292H68.0322C67.8499 107.948 67.7458 109.628 67.7197 110.331L67.7588 110.37C68.1559 109.667 68.6735 109.172 69.3115 108.886C69.9561 108.599 70.7438 108.456 71.6748 108.456C72.2282 108.456 72.723 108.511 73.1592 108.622C73.5954 108.733 73.9827 108.909 74.3213 109.149C74.6663 109.39 74.93 109.719 75.1123 110.136C75.3011 110.546 75.3955 111.037 75.3955 111.61C75.3955 111.871 75.3467 112.821 75.249 114.462C75.1579 116.096 75.1123 117.486 75.1123 118.632H72.1533C72.4593 116.399 72.6123 114.465 72.6123 112.831C72.6123 112.108 72.4398 111.571 72.0947 111.22C71.7562 110.868 71.2223 110.692 70.4932 110.692C69.7445 110.692 69.1423 110.933 68.6865 111.415C68.2308 111.89 67.9281 112.515 67.7783 113.29C67.7393 113.511 67.7002 113.759 67.6611 114.032C67.6286 114.306 67.5993 114.599 67.5732 114.911C67.5537 115.217 67.5342 115.504 67.5146 115.771C67.5016 116.037 67.4886 116.34 67.4756 116.679C67.4691 117.011 67.4626 117.268 67.4561 117.45C67.4561 117.632 67.4528 117.867 67.4463 118.153C67.4398 118.44 67.4365 118.599 67.4365 118.632H64.5752C64.9398 114.14 65.1416 109.693 65.1807 105.292Z" fill="#1D604C"/>
<path d="M84.6143 122.812L84.4775 120.634C85.9684 121.155 87.2542 121.415 88.335 121.415C88.8818 121.415 89.3441 121.33 89.7217 121.161C90.0993 120.998 90.3857 120.823 90.5811 120.634C90.7764 120.445 90.9294 120.129 91.04 119.687C91.1572 119.25 91.2256 118.909 91.2451 118.661C91.2712 118.42 91.2939 118.007 91.3135 117.421C91.32 117.239 91.3265 117.102 91.333 117.011H91.2939C90.9098 117.577 90.4118 118.01 89.7998 118.31C89.1943 118.603 88.527 118.749 87.7979 118.749C86.4697 118.749 85.4183 118.355 84.6436 117.567C83.8753 116.78 83.4912 115.722 83.4912 114.394C83.4912 114.107 83.5107 113.814 83.5498 113.515C83.5889 113.209 83.667 112.854 83.7842 112.45C83.9079 112.047 84.0641 111.669 84.2529 111.317C84.4482 110.959 84.7184 110.601 85.0635 110.243C85.4085 109.885 85.8057 109.579 86.2549 109.325C86.7041 109.065 87.264 108.856 87.9346 108.7C88.6051 108.537 89.3441 108.456 90.1514 108.456C91.3102 108.456 92.7458 108.616 94.458 108.935C94.1715 112.385 93.999 115.839 93.9404 119.296C93.9274 120.071 93.8037 120.725 93.5693 121.259C93.335 121.799 92.9932 122.219 92.5439 122.519C92.1012 122.825 91.5967 123.043 91.0303 123.173C90.4704 123.303 89.8128 123.368 89.0576 123.368C87.5993 123.368 86.1182 123.183 84.6143 122.812ZM91.6162 110.575C91.0303 110.465 90.5029 110.409 90.0342 110.409C89.3896 110.409 88.8265 110.51 88.3447 110.712C87.863 110.907 87.4951 111.145 87.2412 111.425C86.9873 111.698 86.7822 112.024 86.626 112.401C86.4697 112.772 86.3721 113.095 86.333 113.368C86.2939 113.635 86.2744 113.902 86.2744 114.169C86.2744 114.97 86.4827 115.608 86.8994 116.083C87.3226 116.558 87.9281 116.796 88.7158 116.796C89.432 116.796 90.0212 116.539 90.4834 116.024C90.9456 115.51 91.2419 114.879 91.3721 114.13C91.4111 113.863 91.4437 113.567 91.4697 113.241C91.5023 112.909 91.5251 112.636 91.5381 112.421C91.5511 112.206 91.5641 111.887 91.5771 111.464C91.5967 111.041 91.6097 110.744 91.6162 110.575Z" fill="#1D604C"/>
<path d="M106.206 113.808H99.0479V114.13C99.0479 115.041 99.3278 115.754 99.8877 116.269C100.448 116.776 101.187 117.03 102.104 117.03C102.977 117.03 104.084 116.819 105.425 116.396L105.073 118.495C103.966 118.749 102.886 118.876 101.831 118.876C101.128 118.876 100.487 118.808 99.9072 118.671C99.3343 118.541 98.859 118.371 98.4814 118.163C98.1038 117.948 97.7718 117.691 97.4854 117.392C97.2054 117.092 96.9873 116.799 96.8311 116.513C96.6813 116.226 96.5609 115.914 96.4697 115.575C96.3786 115.237 96.32 114.953 96.2939 114.726C96.2744 114.491 96.2646 114.254 96.2646 114.013C96.2646 113.72 96.2809 113.427 96.3135 113.134C96.346 112.834 96.4111 112.496 96.5088 112.118C96.613 111.741 96.7464 111.389 96.9092 111.063C97.0719 110.731 97.2933 110.403 97.5732 110.077C97.8532 109.752 98.1755 109.472 98.54 109.237C98.9046 109.003 99.3538 108.814 99.8877 108.671C100.428 108.528 101.021 108.456 101.665 108.456C102.583 108.456 103.387 108.606 104.077 108.905C104.767 109.205 105.314 109.677 105.718 110.321C106.128 110.959 106.333 111.737 106.333 112.655C106.333 112.955 106.291 113.339 106.206 113.808ZM99.126 112.47H103.667C103.667 111.669 103.507 111.076 103.188 110.692C102.876 110.308 102.349 110.116 101.606 110.116C100.929 110.116 100.369 110.341 99.9268 110.79C99.484 111.233 99.2171 111.793 99.126 112.47Z" fill="#1D604C"/>
<path d="M110.796 108.69L110.737 110.028H110.776C111.434 108.98 112.329 108.456 113.462 108.456C113.722 108.456 114.009 108.489 114.321 108.554L114.399 110.888C113.996 110.757 113.634 110.692 113.315 110.692C112.625 110.692 112.065 110.901 111.636 111.317C111.213 111.734 110.926 112.307 110.776 113.036C110.62 113.791 110.542 115.243 110.542 117.392V118.632H107.759C107.765 118.489 107.788 118.098 107.827 117.46C107.873 116.822 107.902 116.392 107.915 116.171C107.928 115.95 107.951 115.549 107.983 114.97C108.016 114.39 108.035 113.915 108.042 113.544C108.055 113.173 108.071 112.707 108.091 112.147C108.11 111.581 108.123 111.018 108.13 110.458C108.136 109.898 108.14 109.309 108.14 108.69H110.796Z" fill="#1D604C"/>
<path d="M120.913 116.972L120.415 118.69C119.784 118.814 119.168 118.876 118.569 118.876C117.957 118.876 117.424 118.804 116.968 118.661C116.512 118.518 116.164 118.349 115.923 118.153C115.682 117.951 115.487 117.711 115.337 117.431C115.194 117.151 115.103 116.907 115.063 116.698C115.031 116.49 115.015 116.275 115.015 116.054C115.015 115.507 115.145 115.032 115.405 114.628C115.666 114.224 116.001 113.912 116.411 113.69C116.828 113.463 117.284 113.271 117.778 113.114C118.28 112.951 118.781 112.818 119.282 112.714C119.784 112.603 120.239 112.489 120.649 112.372C121.066 112.248 121.405 112.086 121.665 111.884C121.925 111.682 122.056 111.438 122.056 111.151C122.056 110.416 121.447 110.048 120.229 110.048C119.084 110.048 117.785 110.328 116.333 110.888L116.636 109.032C118.224 108.648 119.663 108.456 120.952 108.456C121.447 108.456 121.899 108.492 122.31 108.563C122.726 108.635 123.133 108.759 123.53 108.935C123.934 109.11 124.25 109.377 124.478 109.735C124.712 110.093 124.829 110.533 124.829 111.054C124.829 111.392 124.774 112.457 124.663 114.247C124.552 116.037 124.497 117.499 124.497 118.632H121.714C121.805 117.805 121.919 116.093 122.056 113.495C121.899 113.632 121.672 113.762 121.372 113.886C121.073 114.003 120.767 114.101 120.454 114.179C120.142 114.257 119.816 114.354 119.478 114.472C119.139 114.589 118.836 114.709 118.569 114.833C118.309 114.957 118.094 115.129 117.925 115.351C117.756 115.565 117.671 115.813 117.671 116.093C117.671 116.386 117.759 116.627 117.935 116.815C118.11 116.998 118.315 117.121 118.55 117.187C118.784 117.245 119.051 117.274 119.351 117.274C119.819 117.274 120.34 117.174 120.913 116.972Z" fill="#1D604C"/>
<path d="M68.3506 96.6318C89.3375 96.6318 106.351 79.6186 106.351 58.6318C106.351 55.2106 105.898 51.895 105.051 48.7414H80.3232C77.2662 48.7414 75.7379 49.2339 73.1906 50.7114C71.1526 51.8933 70.3037 54.1588 70.1336 55.1437C69.794 56.457 69.1149 59.9701 71.1526 63.5159C73.1906 67.0618 78.455 67.62 80.8326 67.4558H92.0411V55.6362H82.8705V59.5761H87.9652V63.5159H79.8138L79.643 63.5165C78.5524 63.5217 76.3871 63.5319 75.2285 62.0385C74.1386 60.6339 74.1821 59.125 74.2045 58.3486C74.207 58.2538 74.2095 58.17 74.2095 58.0986C74.2095 57.2778 74.5153 55.3407 75.7379 54.1588C76.9607 52.9768 79.3042 52.1888 80.3232 52.1888H103.108C103.493 54.2779 103.694 56.4314 103.694 58.6318C103.694 78.1512 87.8701 93.9749 68.3506 93.9749C53.0336 93.9749 39.9924 84.2314 35.0869 70.6044H32.2752C37.2908 85.725 51.5469 96.6318 68.3506 96.6318Z" fill="#1D604C"/>
<path fill-rule="evenodd" clip-rule="evenodd" d="M34.1177 67.4558C34.12 67.4643 34.122 67.4727 34.1243 67.4811H31.3863C30.709 64.6417 30.3506 61.6786 30.3506 58.6318C30.3506 37.645 47.3637 20.6318 68.3506 20.6318C84.7661 20.6318 98.7505 31.0406 104.064 45.6181H101.221C96.0382 32.5387 83.2747 23.2888 68.3506 23.2888C48.8311 23.2888 33.0075 39.1124 33.0075 58.6318C33.0075 60.289 33.1216 61.9195 33.3422 63.5159H44.1507V56.1287H60.4537C63.3068 54.1588 61.6424 52.6813 60.4537 52.1888H44.1507V48.7414H62.4916C68.0959 50.2189 65.8881 55.9645 64.02 58.0986C69.3185 63.6145 65.039 67.4558 61.796 67.4558H34.1177ZM48.0906 63.721V60.2736H60.3179C63.5787 61.8495 61.6765 63.2285 60.3179 63.721H48.0906Z" fill="#1D604C"/>
<path d="M126.788 106.132C126.788 106.944 127.111 107.723 127.685 108.297C128.259 108.872 129.038 109.194 129.851 109.194C130.663 109.194 131.442 108.872 132.016 108.297C132.59 107.723 132.913 106.944 132.913 106.132C132.913 105.32 132.59 104.541 132.016 103.966C131.442 103.392 130.663 103.069 129.851 103.069C129.038 103.069 128.259 103.392 127.685 103.966C127.111 104.541 126.788 105.32 126.788 106.132ZM133.351 106.132C133.351 107.06 132.982 107.95 132.325 108.607C131.669 109.263 130.779 109.632 129.851 109.632C128.922 109.632 128.032 109.263 127.376 108.607C126.719 107.95 126.351 107.06 126.351 106.132C126.351 105.204 126.719 104.313 127.376 103.657C128.032 103.001 128.922 102.632 129.851 102.632C130.779 102.632 131.669 103.001 132.325 103.657C132.982 104.313 133.351 105.204 133.351 106.132ZM128.757 104.383H130.117C130.866 104.383 131.317 104.808 131.317 105.459C131.317 105.957 131.025 106.308 130.663 106.439L131.382 107.882H130.717L130.078 106.536H129.341V107.882H128.757V104.383ZM129.341 104.86V106.075H130.019C130.454 106.075 130.707 105.872 130.707 105.48C130.707 105.08 130.446 104.86 130.034 104.86H129.341Z" fill="#1D604C"/>
</svg>
